HIERARCHY
ROOT newVegas:Hips
{
	OFFSET 0.000000 96.479958 0.000000
	CHANNELS 6 Xposition Yposition Zposition Xrotation Yrotation Zrotation
	JOINT newVegas:Pelvis
	{
		OFFSET 0.000000 0.000000 0.000000
		CHANNELS 3 Xrotation Yrotation Zrotation
		JOINT newVegas:LeftUpLeg
		{
			OFFSET 18.735201 -5.666702 -4.541200
			CHANNELS 3 Xrotation Yrotation Zrotation
			JOINT newVegas:LeftLeg
			{
				OFFSET -0.021200 -31.938179 0.493100
				CHANNELS 3 Xrotation Yrotation Zrotation
				JOINT newVegas:LeftFoot
				{
					OFFSET 0.021200 -31.938179 -4.336299
					CHANNELS 3 Xrotation Yrotation Zrotation
					JOINT newVegas:LeftToeBase
					{
						OFFSET 0.943001 -26.722000 15.023500
						CHANNELS 3 Xrotation Yrotation Zrotation
						End Site
						{
							OFFSET 0.000000 30.670183 0.000000
						}
					}
				}
				JOINT newVegas:Left_PantLeg
				{
					OFFSET 0.663870 -9.044666 -1.108900
					CHANNELS 3 Xrotation Yrotation Zrotation
					End Site
					{
						OFFSET 1.415995 20.635357 0.000000
					}
				}
			}
		}
		JOINT newVegas:RightUpLeg
		{
			OFFSET -18.735201 -5.666702 -4.541200
			CHANNELS 3 Xrotation Yrotation Zrotation
			JOINT newVegas:RightLeg
			{
				OFFSET 0.018946 -31.938133 0.493100
				CHANNELS 3 Xrotation Yrotation Zrotation
				JOINT newVegas:RightFoot
				{
					OFFSET -0.018946 -31.938126 -4.336299
					CHANNELS 3 Xrotation Yrotation Zrotation
					JOINT newVegas:RightToeBase
					{
						OFFSET -0.943001 -26.722004 15.023500
						CHANNELS 3 Xrotation Yrotation Zrotation
						End Site
						{
							OFFSET 0.000000 30.670187 0.000000
						}
					}
				}
				JOINT newVegas:Right_PantLeg
				{
					OFFSET -0.661674 -9.044716 -1.108900
					CHANNELS 3 Xrotation Yrotation Zrotation
					End Site
					{
						OFFSET -1.415958 20.635269 0.000000
					}
				}
			}
		}
	}
	JOINT newVegas:Spine
	{
		OFFSET 0.000000 10.199997 -0.299500
		CHANNELS 3 Xrotation Yrotation Zrotation
		JOINT newVegas:Spine1
		{
			OFFSET 0.000000 11.900002 -1.516600
			CHANNELS 3 Xrotation Yrotation Zrotation
			JOINT newVegas:Spine2
			{
				OFFSET 0.000000 13.600006 -2.842500
				CHANNELS 3 Xrotation Yrotation Zrotation
				JOINT newVegas:Neck
				{
					OFFSET 0.000000 9.624100 -2.890100
					CHANNELS 3 Xrotation Yrotation Zrotation
					JOINT newVegas:Head
					{
						OFFSET 0.000000 14.068802 -1.351900
						CHANNELS 3 Xrotation Yrotation Zrotation
						JOINT newVegas:Hair_Back
						{
							OFFSET 0.000000 3.231903 -17.524799
							CHANNELS 3 Xrotation Yrotation Zrotation
							End Site
							{
								OFFSET 0.000000 19.849884 0.000000
							}
						}
						JOINT newVegas:Hair_Front
						{
							OFFSET 0.000000 31.260406 4.573800
							CHANNELS 3 Xrotation Yrotation Zrotation
							JOINT newVegas:Hair_Front1
							{
								OFFSET 0.000000 2.284103 11.993300
								CHANNELS 3 Xrotation Yrotation Zrotation
								JOINT newVegas:Hair_Front2
								{
									OFFSET 0.000000 2.284103 11.993300
									CHANNELS 3 Xrotation Yrotation Zrotation
									End Site
									{
										OFFSET 0.000000 12.208862 0.000000
									}
								}
							}
						}
						JOINT newVegas:Jowel
						{
							OFFSET 0.000000 -7.458206 6.864100
							CHANNELS 3 Xrotation Yrotation Zrotation
							End Site
							{
								OFFSET 0.000000 19.849884 0.000000
							}
						}
					}
				}
				JOINT newVegas:LeftShoulder
				{
					OFFSET 15.263000 10.923401 -0.547700
					CHANNELS 3 Xrotation Yrotation Zrotation
					JOINT newVegas:LeftArm
					{
						OFFSET 25.438599 -2.830597 -13.032500
						CHANNELS 3 Xrotation Yrotation Zrotation
						JOINT newVegas:LeftForeArm
						{
							OFFSET 29.960503 0.000000 0.000000
							CHANNELS 3 Xrotation Yrotation Zrotation
							JOINT newVegas:LeftHand
							{
								OFFSET 27.849251 0.000000 0.000000
								CHANNELS 3 Xrotation Yrotation Zrotation
								JOINT newVegas:LeftHandThumb1
								{
									OFFSET 4.487587 -3.305161 6.305391
									CHANNELS 3 Xrotation Yrotation Zrotation
									JOINT newVegas:LeftHandThumb2
									{
										OFFSET 5.480453 -3.164139 3.164143
										CHANNELS 3 Xrotation Yrotation Zrotation
										JOINT newVegas:LeftHandThumb3
										{
											OFFSET 5.159721 -2.978973 2.978967
											CHANNELS 3 Xrotation Yrotation Zrotation
											End Site
											{
												OFFSET 2.494507 5.926697 1.738678
											}
										}
									}
								}
								JOINT newVegas:LeftHandIndex1
								{
									OFFSET 18.578728 -0.527832 5.208049
									CHANNELS 3 Xrotation Yrotation Zrotation
									JOINT newVegas:LeftHandIndex2
									{
										OFFSET 3.192009 0.000000 0.000000
										CHANNELS 3 Xrotation Yrotation Zrotation
										JOINT newVegas:LeftHandIndex3
										{
											OFFSET 3.835129 0.000000 0.000000
											CHANNELS 3 Xrotation Yrotation Zrotation
											End Site
											{
												OFFSET -0.034599 3.816971 0.371180
											}
										}
									}
								}
								JOINT newVegas:LeftHandMiddle1
								{
									OFFSET 18.476105 0.000000 0.000000
									CHANNELS 3 Xrotation Yrotation Zrotation
									JOINT newVegas:LeftHandMiddle2
									{
										OFFSET 3.324875 0.000000 0.000000
										CHANNELS 3 Xrotation Yrotation Zrotation
										JOINT newVegas:LeftHandMiddle3
										{
											OFFSET 4.596550 0.000000 0.000000
											CHANNELS 3 Xrotation Yrotation Zrotation
											End Site
											{
												OFFSET 0.057701 4.578827 0.399218
											}
										}
									}
								}
								JOINT newVegas:LeftHandRing1
								{
									OFFSET 17.732719 0.121887 -4.201567
									CHANNELS 3 Xrotation Yrotation Zrotation
									JOINT newVegas:LeftHandRing2
									{
										OFFSET 2.733170 0.000000 0.000000
										CHANNELS 3 Xrotation Yrotation Zrotation
										JOINT newVegas:LeftHandRing3
										{
											OFFSET 3.178268 0.000000 0.000000
											CHANNELS 3 Xrotation Yrotation Zrotation
											End Site
											{
												OFFSET 0.119102 3.170624 0.185394
											}
										}
									}
								}
								JOINT newVegas:LeftHandPinky1
								{
									OFFSET 15.989624 -0.606689 -7.535461
									CHANNELS 3 Xrotation Yrotation Zrotation
									JOINT newVegas:LeftHandPinky2
									{
										OFFSET 2.538986 0.000000 0.000000
										CHANNELS 3 Xrotation Yrotation Zrotation
										JOINT newVegas:LeftHandPinky3
										{
											OFFSET 2.593102 0.000000 0.000000
											CHANNELS 3 Xrotation Yrotation Zrotation
											End Site
											{
												OFFSET -0.150902 2.584198 0.152708
											}
										}
									}
								}
							}
							JOINT newVegas:Left_Sleeve
							{
								OFFSET 0.267448 -0.649796 0.577675
								CHANNELS 3 Xrotation Yrotation Zrotation
								End Site
								{
									OFFSET 0.000000 15.991241 0.000000
								}
							}
							JOINT newVegas:Left_CapeC
							{
								OFFSET 15.715958 -8.608795 -6.935905
								CHANNELS 3 Xrotation Yrotation Zrotation
								JOINT newVegas:Left_CapeC1
								{
									OFFSET 0.000000 -8.688499 0.000000
									CHANNELS 3 Xrotation Yrotation Zrotation
									End Site
									{
										OFFSET 0.000000 8.688499 0.000000
									}
								}
							}
						}
						JOINT newVegas:Left_CapeB
						{
							OFFSET 26.118385 -8.608795 -7.079235
							CHANNELS 3 Xrotation Yrotation Zrotation
							JOINT newVegas:Left_CapeB1
							{
								OFFSET 0.000000 -8.688499 0.000000
								CHANNELS 3 Xrotation Yrotation Zrotation
								End Site
								{
									OFFSET 0.000000 8.688499 0.000000
								}
							}
						}
						JOINT newVegas:Left_CapeA
						{
							OFFSET 5.115639 -8.608795 -10.395809
							CHANNELS 3 Xrotation Yrotation Zrotation
							JOINT newVegas:Left_CapeA1
							{
								OFFSET 0.000000 -8.688499 0.000000
								CHANNELS 3 Xrotation Yrotation Zrotation
								End Site
								{
									OFFSET 0.000000 8.688499 0.000000
								}
							}
						}
					}
				}
				JOINT newVegas:RightShoulder
				{
					OFFSET -15.263000 10.923401 -0.547700
					CHANNELS 3 Xrotation Yrotation Zrotation
					JOINT newVegas:RightArm
					{
						OFFSET -25.438599 -2.830597 -13.032500
						CHANNELS 3 Xrotation Yrotation Zrotation
						JOINT newVegas:RightForeArm
						{
							OFFSET -29.960503 0.000000 0.000000
							CHANNELS 3 Xrotation Yrotation Zrotation
							JOINT newVegas:RightHand
							{
								OFFSET -27.849251 0.000000 0.000000
								CHANNELS 3 Xrotation Yrotation Zrotation
								JOINT newVegas:RightHandThumb1
								{
									OFFSET -4.487587 -3.305161 6.305391
									CHANNELS 3 Xrotation Yrotation Zrotation
									JOINT newVegas:RightHandThumb2
									{
										OFFSET -5.480453 -3.164139 3.164143
										CHANNELS 3 Xrotation Yrotation Zrotation
										JOINT newVegas:RightHandThumb3
										{
											OFFSET -5.159721 -2.978973 2.978967
											CHANNELS 3 Xrotation Yrotation Zrotation
											End Site
											{
												OFFSET -2.494507 5.926697 1.738678
											}
										}
									}
								}
								JOINT newVegas:RightHandIndex1
								{
									OFFSET -18.578728 -0.527832 5.208049
									CHANNELS 3 Xrotation Yrotation Zrotation
									JOINT newVegas:RightHandIndex2
									{
										OFFSET -3.192009 0.000000 0.000000
										CHANNELS 3 Xrotation Yrotation Zrotation
										JOINT newVegas:RightHandIndex3
										{
											OFFSET -3.835129 0.000000 0.000000
											CHANNELS 3 Xrotation Yrotation Zrotation
											End Site
											{
												OFFSET 0.034599 3.816971 0.371180
											}
										}
									}
								}
								JOINT newVegas:RightHandMiddle1
								{
									OFFSET -18.476105 0.000000 0.000000
									CHANNELS 3 Xrotation Yrotation Zrotation
									JOINT newVegas:RightHandMiddle2
									{
										OFFSET -3.324875 0.000000 0.000000
										CHANNELS 3 Xrotation Yrotation Zrotation
										JOINT newVegas:RightHandMiddle3
										{
											OFFSET -4.596550 0.000000 0.000000
											CHANNELS 3 Xrotation Yrotation Zrotation
											End Site
											{
												OFFSET -0.057701 4.578827 0.399218
											}
										}
									}
								}
								JOINT newVegas:RightHandRing1
								{
									OFFSET -17.732719 0.121887 -4.201567
									CHANNELS 3 Xrotation Yrotation Zrotation
									JOINT newVegas:RightHandRing2
									{
										OFFSET -2.733170 0.000000 0.000000
										CHANNELS 3 Xrotation Yrotation Zrotation
										JOINT newVegas:RightHandRing3
										{
											OFFSET -3.178268 0.000000 0.000000
											CHANNELS 3 Xrotation Yrotation Zrotation
											End Site
											{
												OFFSET -0.119102 3.170624 0.185394
											}
										}
									}
								}
								JOINT newVegas:RightHandPinky1
								{
									OFFSET -15.989624 -0.606689 -7.535461
									CHANNELS 3 Xrotation Yrotation Zrotation
									JOINT newVegas:RightHandPinky2
									{
										OFFSET -2.538986 0.000000 0.000000
										CHANNELS 3 Xrotation Yrotation Zrotation
										JOINT newVegas:RightHandPinky3
										{
											OFFSET -2.593102 0.000000 0.000000
											CHANNELS 3 Xrotation Yrotation Zrotation
											End Site
											{
												OFFSET 0.150902 2.584198 0.152708
											}
										}
									}
								}
							}
							JOINT newVegas:Right_CapeC
							{
								OFFSET -15.715958 -8.608795 -6.935905
								CHANNELS 3 Xrotation Yrotation Zrotation
								JOINT newVegas:Right_CapeC1
								{
									OFFSET 0.000000 -8.688499 0.000000
									CHANNELS 3 Xrotation Yrotation Zrotation
									End Site
									{
										OFFSET 0.000000 8.688499 0.000000
									}
								}
							}
							JOINT newVegas:Right_Sleeve
							{
								OFFSET -0.267448 -0.649994 0.577675
								CHANNELS 3 Xrotation Yrotation Zrotation
								End Site
								{
									OFFSET 0.000000 15.991302 0.000000
								}
							}
						}
						JOINT newVegas:Right_CapeA
						{
							OFFSET -5.115540 -8.608795 -10.395824
							CHANNELS 3 Xrotation Yrotation Zrotation
							JOINT newVegas:Right_CapeA1
							{
								OFFSET 0.000000 -8.688499 0.000000
								CHANNELS 3 Xrotation Yrotation Zrotation
								End Site
								{
									OFFSET 0.000000 8.688499 0.000000
								}
							}
						}
						JOINT newVegas:Right_CapeB
						{
							OFFSET -26.118187 -8.608795 -7.079266
							CHANNELS 3 Xrotation Yrotation Zrotation
							JOINT newVegas:Right_CapeB1
							{
								OFFSET 0.000000 -8.688499 0.000000
								CHANNELS 3 Xrotation Yrotation Zrotation
								End Site
								{
									OFFSET 0.000000 8.688499 0.000000
								}
							}
						}
					}
				}
				JOINT newVegas:Left_Collar
				{
					OFFSET 18.625099 8.655502 8.828100
					CHANNELS 3 Xrotation Yrotation Zrotation
					JOINT newVegas:Left_Collar1
					{
						OFFSET 14.783401 10.540405 -1.259500
						CHANNELS 3 Xrotation Yrotation Zrotation
						End Site
						{
							OFFSET 0.000000 18.199875 0.000000
						}
					}
				}
				JOINT newVegas:Collar_Back
				{
					OFFSET 0.000000 15.630707 -20.132601
					CHANNELS 3 Xrotation Yrotation Zrotation
					End Site
					{
						OFFSET 0.000000 22.523010 0.000000
					}
				}
				JOINT newVegas:Left_Peck
				{
					OFFSET 17.239599 -5.132599 25.482599
					CHANNELS 3 Xrotation Yrotation Zrotation
					End Site
					{
						OFFSET 0.000000 22.523010 0.000000
					}
				}
				JOINT newVegas:Right_Peck
				{
					OFFSET -17.239599 -5.132202 25.482599
					CHANNELS 3 Xrotation Yrotation Zrotation
					End Site
					{
						OFFSET 0.000000 22.523010 0.000000
					}
				}
				JOINT newVegas:Right_Collar
				{
					OFFSET -18.625099 8.655792 8.828100
					CHANNELS 3 Xrotation Yrotation Zrotation
					JOINT newVegas:Right_Collar1
					{
						OFFSET -14.783401 10.539993 -1.259500
						CHANNELS 3 Xrotation Yrotation Zrotation
						End Site
						{
							OFFSET 0.000000 18.199631 0.000000
						}
					}
				}
			}
		}
		JOINT newVegas:Belly
		{
			OFFSET 0.000000 -6.540398 9.014299
			CHANNELS 3 Xrotation Yrotation Zrotation
			End Site
			{
				OFFSET 0.000000 11.566666 0.000000
			}
		}
	}
	JOINT newVegas:ElvisFacialAnim_Joint
	{
		OFFSET 1.000000 -95.330101 -8.825800
		CHANNELS 3 Xrotation Yrotation Zrotation
		End Site
		{
			OFFSET 0.000000 35.315800 0.000000
		}
	}
}
MOTION
Frames: 4
Frame Time: 0.033333
105.625488 72.639397 255.091156 414.378288 -70.148201 56.661754 -0.000001 -0.000002 0.000000 -86.478015 20.273096 57.633286 52.787913 -16.310507 7.822966 10.166437 -2.100798 -19.215077 0.000000 -0.000000 -0.000000 -0.000000 -0.000000 -0.000001 -49.304762 8.605909 -45.072907 69.168923 5.293009 1.824254 -21.596121 -10.064429 33.732901 0.000000 -0.000000 0.000000 -0.000001 0.000000 -0.000002 13.610793 0.115119 -4.155586 0.078822 0.429327 -1.203035 0.034441 0.467489 -1.258159 -0.130920 2.314705 -0.711577 -0.130942 2.314726 -0.711586 0.000001 0.000000 0.000001 -0.130998 2.314717 -0.711575 -0.130765 2.314715 -0.711585 -0.000002 -0.000002 0.000000 0.000001 0.000000 0.000001 0.073978 1.363299 -2.040660 -22.741480 39.360833 -27.089531 89.422312 -137.463854 95.090133 11.843788 15.588776 -5.889652 4.766516 -0.870682 -14.442447 15.732318 12.674823 8.828574 0.000001 -0.000001 -0.000008 -3.609566 -7.817619 -81.260489 0.007007 -4.396147 -67.459572 -0.000002 -0.000000 -0.000000 -5.482364 2.419648 -86.651605 -0.070608 -4.896000 -76.607129 0.000000 0.000002 0.000001 -4.486648 3.914059 -90.411644 -1.101995 -0.685520 -62.310866 0.000000 -0.000002 -0.000001 -8.877468 8.263031 -85.751154 -0.045726 -0.066232 -74.105647 0.000001 -0.000002 -0.000002 0.000000 0.000000 0.000001 0.000000 0.000000 0.000001 -0.000000 -0.000000 0.000001 0.000001 0.000005 0.000002 0.000001 0.000004 0.000003 0.000001 0.000005 0.000002 0.000001 0.000005 0.000001 1.397042 -2.523096 11.712090 -30.092577 25.713767 34.554876 -4.294298 38.535681 2.989476 -4.026632 -3.972328 0.073287 24.918378 -21.323340 30.343057 9.041904 8.262097 -18.001795 0.000002 0.000001 -0.000001 -0.063508 -3.017247 61.424424 0.006454 4.395149 66.609193 -0.000004 -0.000003 -0.000000 -1.221752 -0.129466 68.273697 -0.078707 4.899227 84.501755 -0.000003 -0.000002 0.000000 0.882081 -4.623031 79.192676 -0.721559 1.141052 73.254373 -0.000003 -0.000003 0.000002 -3.962365 0.099753 86.766837 -0.027286 0.052928 54.416141 0.000003 -0.000000 0.000000 -0.000000 -0.000001 0.000001 -0.000000 -0.000002 0.000003 -0.000002 -0.000000 0.000000 0.000001 0.000000 -0.000001 0.000002 0.000001 -0.000000 0.000001 0.000000 -0.000001 0.000002 0.000001 0.000002 0.000001 -0.000000 -0.000001 0.000001 -0.000000 -0.000001 0.000001 -0.000000 -0.000001 0.000001 -0.000000 -0.000001 0.000001 -0.000000 -0.000001 0.000001 -0.000000 -0.000001 0.000001 -0.000000 -0.000001 0.000000 0.000000 -0.000001 -0.000001 -0.000002 0.000000 
106.040489 73.732269 256.625854 405.961200 -69.243344 46.170798 0.000000 0.000001 -0.000000 -84.914653 17.743305 53.598021 53.451735 -15.240322 7.610313 9.912196 -2.049889 -17.613075 -0.000000 -0.000002 -0.000000 0.000001 0.000001 0.000003 -48.302620 -0.740804 -46.446113 63.533047 7.422567 -0.990149 -19.482623 -9.701845 33.644911 -0.000000 -0.000001 0.000000 0.000001 -0.000001 -0.000002 14.235925 -2.194188 -3.249704 0.232716 -0.204629 -1.014859 0.149844 -0.172354 -1.124111 -0.361385 2.469486 -0.433783 -0.361382 2.469495 -0.433777 -0.000000 -0.000001 -0.000000 -0.361244 2.469492 -0.433794 -0.361541 2.469488 -0.433781 -0.000001 0.000000 -0.000000 -0.000000 -0.000001 -0.000000 0.036431 -0.327453 -1.951640 -23.964371 37.994642 -27.985629 77.525939 -139.297555 68.805837 9.076295 17.472327 -3.773801 4.766518 -0.870675 -14.442452 15.732309 12.674845 8.828576 -0.000004 -0.000005 0.000000 -3.609588 -7.817630 -81.260530 0.006995 -4.396127 -67.459552 0.000001 -0.000001 0.000001 -5.482361 2.419648 -86.651632 -0.070594 -4.895997 -76.607108 0.000000 0.000000 -0.000004 -4.486650 3.914052 -90.411658 -1.101977 -0.685532 -62.310880 -0.000000 -0.000002 0.000000 -8.877479 8.263006 -85.751147 -0.045716 -0.066214 -74.105661 0.000001 0.000000 0.000001 0.000000 -0.000001 -0.000001 0.000000 -0.000001 -0.000001 -0.000000 -0.000001 -0.000001 -0.000000 0.000002 -0.000000 0.000000 0.000002 0.000001 -0.000000 0.000002 -0.000000 -0.000000 0.000002 0.000001 0.062031 2.868778 10.631905 -27.929730 23.792609 35.998949 -11.016796 50.297472 7.051291 -5.405333 -2.895030 6.210743 24.918378 -21.323342 30.343057 9.041902 8.262099 -18.001800 0.000000 -0.000001 0.000001 -0.063507 -3.017249 61.424424 0.006453 4.395144 66.609193 0.000004 -0.000002 0.000000 -1.221744 -0.129470 68.273704 -0.078710 4.899233 84.501762 -0.000003 0.000000 -0.000001 0.882085 -4.623034 79.192683 -0.721554 1.141049 73.254373 -0.000000 0.000002 -0.000000 -3.962361 0.099750 86.766837 -0.027282 0.052922 54.416138 0.000002 0.000001 0.000001 -0.000003 0.000000 -0.000001 0.000000 0.000000 -0.000003 -0.000003 0.000000 0.000001 -0.000000 0.000004 -0.000000 -0.000000 0.000005 -0.000001 -0.000000 0.000004 -0.000000 -0.000000 0.000004 -0.000000 0.000002 -0.000000 0.000000 0.000002 -0.000000 0.000000 0.000002 -0.000000 0.000000 0.000002 -0.000000 0.000000 0.000002 -0.000000 0.000000 0.000002 -0.000000 0.000000 0.000002 -0.000000 0.000000 -0.000000 -0.000000 0.000000 0.000000 0.000001 -0.000000 
105.992317 75.113541 257.862244 399.911838 -67.080661 38.782569 -0.000001 -0.000000 -0.000000 -82.808134 16.979654 49.369383 51.332406 -14.434801 7.012430 10.553564 -2.086209 -16.527075 -0.000000 0.000002 0.000000 -0.000002 -0.000002 -0.000000 -44.623439 -7.123360 -46.722039 56.993851 5.768253 -1.834629 -17.336646 -9.170876 35.186348 -0.000000 -0.000003 0.000000 -0.000002 0.000001 -0.000000 12.820099 -2.523702 -3.732850 0.295835 -0.260324 -0.785322 0.137434 -0.242459 -0.989897 -0.568276 2.593097 0.080905 -0.568273 2.593073 0.080919 -0.000000 -0.000002 0.000001 -0.568275 2.593088 0.080913 -0.568339 2.593084 0.080913 -0.000001 -0.000000 0.000000 -0.000000 -0.000002 -0.000000 -0.017979 -2.033407 -2.091289 -25.885881 30.059775 -28.027251 74.760102 -139.806090 53.596505 6.161481 17.542460 -3.799494 4.766507 -0.870679 -14.442474 15.732323 12.674838 8.828575 0.000002 -0.000000 -0.000003 -3.609594 -7.817614 -81.260509 0.007018 -4.396141 -67.459572 -0.000001 -0.000001 0.000004 -5.482370 2.419648 -86.651605 -0.070601 -4.895993 -76.607122 0.000001 0.000002 -0.000005 -4.486652 3.914054 -90.411658 -1.101994 -0.685513 -62.310887 0.000003 0.000003 0.000002 -8.877482 8.263025 -85.751147 -0.045721 -0.066236 -74.105647 0.000000 -0.000007 -0.000002 -0.000001 0.000001 -0.000000 -0.000001 0.000001 -0.000000 -0.000001 0.000001 -0.000000 -0.000001 0.000000 -0.000005 -0.000000 -0.000000 -0.000003 -0.000001 0.000000 -0.000005 -0.000001 0.000001 -0.000005 -0.818409 7.292945 9.512730 -24.745840 17.882403 33.768657 -31.811657 62.385029 25.371325 -4.463118 -6.186747 10.584682 24.918379 -21.323343 30.343054 9.041906 8.262099 -18.001797 0.000000 0.000003 -0.000000 -0.063507 -3.017247 61.424424 0.006451 4.395149 66.609193 -0.000001 -0.000001 0.000002 -1.221745 -0.129469 68.273697 -0.078707 4.899229 84.501755 0.000002 -0.000001 0.000000 0.882082 -4.623034 79.192676 -0.721555 1.141050 73.254373 0.000001 0.000002 0.000001 -3.962360 0.099749 86.766830 -0.027282 0.052930 54.416138 -0.000001 0.000001 0.000001 -0.000002 0.000001 -0.000000 -0.000001 -0.000001 -0.000001 -0.000002 0.000001 -0.000000 -0.000000 -0.000001 0.000004 -0.000000 0.000000 0.000003 -0.000000 -0.000001 0.000004 0.000000 0.000000 0.000004 0.000000 0.000000 -0.000001 0.000000 0.000000 -0.000001 0.000000 0.000000 -0.000001 0.000000 0.000000 -0.000001 0.000000 0.000000 -0.000001 0.000000 0.000000 -0.000001 0.000000 0.000000 -0.000001 -0.000001 0.000001 -0.000000 -0.000001 -0.000000 -0.000000 
105.689247 76.237434 258.760406 397.522447 -65.423534 36.151327 0.000001 0.000000 -0.000001 -79.798685 16.913833 45.747934 48.657301 -12.869909 6.420430 10.871326 -2.032864 -16.550838 -0.000000 -0.000000 0.000000 0.000002 -0.000003 -0.000000 -41.364886 -10.216298 -46.993952 51.699201 3.754535 -1.330547 -15.490553 -8.510216 36.343734 0.000000 -0.000002 -0.000000 0.000001 -0.000000 -0.000001 11.030893 -1.944146 -5.104905 0.437051 -0.029646 -0.662709 0.177288 -0.025082 -0.994731 -0.631798 2.615296 0.662886 -0.631809 2.615283 0.662891 0.000000 0.000001 -0.000000 -0.631805 2.615307 0.662881 -0.631722 2.615178 0.662903 -0.000001 -0.000001 -0.000000 0.000000 0.000001 0.000001 -0.090505 -3.733696 -2.284543 -28.538559 21.182215 -28.343159 75.594710 -137.248157 48.018040 3.341898 16.573726 -4.356161 4.766512 -0.870684 -14.442452 15.732289 12.674824 8.828577 -0.000004 -0.000001 -0.000004 -3.609577 -7.817642 -81.260509 0.006985 -4.396144 -67.459565 -0.000001 -0.000001 0.000007 -5.482370 2.419649 -86.651625 -0.070604 -4.896006 -76.607115 -0.000000 0.000001 0.000001 -4.486643 3.914048 -90.411665 -1.102016 -0.685536 -62.310873 0.000001 0.000001 0.000001 -8.877503 8.263034 -85.751099 -0.045691 -0.066212 -74.105661 0.000000 -0.000001 -0.000003 -0.000000 0.000000 0.000001 -0.000000 0.000000 0.000001 -0.000000 0.000000 0.000001 -0.000000 -0.000003 -0.000002 0.000000 -0.000003 -0.000004 -0.000000 -0.000003 -0.000002 -0.000001 -0.000003 -0.000003 -1.161846 10.696290 8.608594 -19.276556 9.018541 32.637980 -67.534513 69.638847 59.420569 -1.974268 -5.162286 10.867949 24.918376 -21.323347 30.343061 9.041907 8.262098 -18.001795 0.000000 -0.000005 0.000001 -0.063505 -3.017251 61.424424 0.006453 4.395149 66.609193 0.000001 -0.000000 -0.000001 -1.221748 -0.129471 68.273697 -0.078709 4.899228 84.501755 0.000001 -0.000000 -0.000000 0.882083 -4.623036 79.192676 -0.721559 1.141049 73.254366 -0.000005 0.000002 -0.000000 -3.962362 0.099747 86.766830 -0.027286 0.052930 54.416141 0.000003 -0.000000 -0.000000 0.000000 -0.000001 -0.000003 0.000000 -0.000001 -0.000003 0.000000 -0.000001 -0.000000 -0.000001 -0.000003 0.000001 -0.000000 -0.000002 -0.000000 -0.000001 -0.000003 0.000001 -0.000000 -0.000002 -0.000001 0.000002 0.000000 -0.000000 0.000002 0.000000 -0.000000 0.000002 0.000000 -0.000000 0.000002 0.000000 -0.000000 0.000002 0.000000 -0.000000 0.000002 0.000000 -0.000000 0.000002 0.000000 -0.000000 0.000000 0.000001 -0.000000 0.000001 0.000000 -0.000001 
